<svg class="railroad-diagram" width="367" height="82" viewBox="0 0 367 82"><g transform="translate(.5 .5)"><g><path d="M20 21v20m0 -10h20"></path></g><g><path d="M40 31h0"></path><path d="M227.5 31h0"></path><path d="M40 31h20"></path><g><path d="M60 31h147.5"></path></g><path d="M207.5 31h20"></path><path d="M40 31a10 10 0 0 1 10 10v0a10 10 0 0 0 10 10"></path><g class="non-terminal"><path d="M60 51h0"></path><path d="M207.5 51h0"></path><rect x="60" y="40" width="147.5" height="22"></rect><a xlink:href="#start-of-pattern-options"><text x="133.75" y="55">special options</text></a></g><path d="M207.5 51a10 10 0 0 0 10 -10v0a10 10 0 0 1 10 -10"></path></g><path d="M227.5 31h10"></path><g class="non-terminal"><path d="M237.5 31h0"></path><path d="M317 31h0"></path><rect x="237.5" y="20" width="79.5" height="22"></rect><a xlink:href="#pattern"><text x="277.25" y="35">pattern</text></a></g><path d="M317 31h10"></path><path d="M 327 31 h 20 m 0 -10 v 20"></path></g></svg>
